<?xml version="1.0" encoding="UTF-8"?><svg id="Layer_2" xmlns="http://www.w3.org/2000/svg" viewBox="0 0 762.25 844.23"><defs><style>.cls-1{fill:#f9d9c2;}</style></defs><g id="Layer_1-2"><g id="BpEtzY.tif"><path class="cls-1" d="M445.32,687.81c-40.56-3.42-74.41-34.09-88.22-71.7-6.4-15.34-8.86-38.74-27.71-43.56-7.49-1.72-15.25,2.07-19.67,8.26-3.23,4.27-5.43,9.04-7.88,14.02-39.02,85.98-155.59,78.91-184.98-9.82-25.71-76.25,37.94-100.81,30.44-128.24-4.77-12.41-17.22-11.37-30.77-10.97-27.22,2.51-54.61-.05-78.13-18.74C-33.37,373.44,1.53,247.58,92.97,248.41c12.29-.28,23.54,3.13,35.74,3,21.43-.26,29.99-17.08,24.12-36.17-2.3-7.04-6.67-12.85-10.82-19.19-15.79-23.88-28.56-51.23-30.72-79.81-5.02-43.4,20.77-87.52,60.05-106C186.35,3.33,201.15.99,217.56.34c95.34-7.21,96.4,103.54,148.78,115.35,11.81,2.07,24.55-.19,35.2-6.13,17.73-10.96,25.76-30.48,35.76-48.39,14.07-28.18,36.58-48.22,69.2-56.21,106.99-30.64,188.42,96.45,118.05,182.29-7.25,10.08-14.8,19.33-18.22,31.2-5.42,23.46,6.46,38.31,31.14,38.91,28.13,1.16,65.42-2.69,89.3,19.38,77.76,70.87,19.16,237.76-92.61,211.88-7.63-1.42-15.8-2.88-23.96-3.52-28.1-2.76-46.55,7.52-47.87,35.88-1.03,26.29,9.5,48.17-1.46,81.04-13.48,49.99-62.38,91.88-115.35,85.79l-.2-.02ZM186.47,636.2c52.86,18.78,86.76-19.74,111.88-63.04,3.15-4.44,6.79-8.5,11.16-11.56,16.96-11.87,34.81-1.14,45.66,15.99,4.43,6.87,7.23,14.59,10.27,22.81,43.79,131.38,212.57,59.58,182.9-66.21-1.06-6.08-1.79-11.96-1.37-17.42.98-12.58,6.86-24.53,15.4-32.85,8.8-8.58,20.62-13.75,33.85-13.24,5.77.21,12.01,1.72,18.49,3.4,153.42,41.65,195.03-226.21,28.78-203.37-36.78,1.52-63.81-18.7-51.9-57.29,14.54-34.61,41.8-48.27,44.95-95.86,10-72.65-69.2-123.7-134.05-98.96-37.53,11.77-51.51,45.07-66.78,76.53-7.92,16.45-17.93,26.41-36.08,31.93-24.77,7.74-54.69,3.17-72.22-15.84-6.56-7.02-10.84-16.43-15.06-25.59-9.27-19.99-17.98-39.18-34.37-52.1-5.16-4.08-11.01-7.47-18.36-10.3-110.61-42.64-167.21,76.66-104.6,164.63,4.84,6.97,10.06,13.82,13.18,21.5,6.14,14.53,6.55,32.06-4.04,44.37-18.99,21.26-56.97,6.63-82.62,10.97-101.31,11.39-83.32,176.88,23.85,168.66,9.93.17,19.53-1.56,29.49-2.12,21.93-1.44,37.06,11.34,29.35,33.14-1.77,5.07-4.56,9.73-7.86,14.07-48.02,47.58-37.65,135.46,29.9,157.66l.21.07Z"/><path class="cls-1" d="M154.66,799.15c-5.58,21.21-28.55,36.61-47.94,42.91-4.52,1.52-10.71,2.15-14.31-1.27-3.51-3.8-1.99-9.1-2.33-14.37,0-3.92,0-8.69,0-13.75,0-10.72.02-25.66.02-35.17-.46-7.52,3.29-9.16,9.95-10.85,20.62-5.18,60.31,4.42,54.64,32.31l-.04.19ZM117.23,824.55c12.71-3.44,24.12-17.38,23.53-30.8-.5-10.2-10.84-17.54-20.55-18.15-17.31-.68-19.53,14.54-19.25,28.42-.2,11.32,2.44,23.19,16.07,20.57l.19-.04Z"/><path class="cls-1" d="M652.19,831.08c-9.08-6.82-20.21-7.16-29.39-1.29-5.43,2.8-11.32,11.73-17.26,10.7-3.9-1.88-1.88-8.24-.99-11.8,4.84-17.54,9.03-35.68,18.05-51.26,5.62-10.28,16.21-17.13,23.49-3.98,2.21,3.88,3.69,8.31,5.22,12.52,5.15,14.78,12.5,28.18,18.83,42.38,2.06,4.48,4.25,14.23-3.31,13.02-4-.8-9.57-6.82-14.45-10.15l-.19-.13ZM636.23,789c-6.1-.71-9,7-9.28,12.47-.5,6.06,1.69,13.3,7.92,15.12,13.75,3.37,14.08-24.44,1.53-27.56l-.16-.03Z"/><path class="cls-1" d="M381.85,832.2c-9.91-8.57-25.22-8.77-35.01.27-3.43,2.88-8.56,8.18-11.97,8.32-5.18.19-4.14-6.82-3.1-10.47,6.1-18.55,10.74-46.04,24.08-60.47,13.03-11.37,18.91,4.37,22.48,15.03,5.48,15.62,14.39,31.23,20.61,46.63,1.56,4.22.63,10.5-4.81,9.23-4.77-1.24-8.27-5.38-12.12-8.41l-.15-.12ZM371.7,811.62c1.46-2.64,1.83-6.19,1.36-9.61-.6-6.38-6.15-16.88-13.39-12.06-5.91,5.13-7.7,20.59.38,25.27,4.02,2.26,9.35.7,11.55-3.42l.1-.18Z"/><path class="cls-1" d="M185.15,827.94c7.16,7.68,20.12,3.68,29.54,5.35,5.31.7,8.32,4.96,1.79,7.5-3.3,1.3-7.65,1.54-11.38,1.57-6.08.09-12.22.01-18.31-.11-13.63-.04-20.94-2.37-20.52-17.2.18-15.45-.26-29.61,1.71-44.75,1.88-14.23,7.7-14.73,25.43-13.54,6.9.72,16.82-.57,22.74,2.32,2.54,1.47,2.11,4.07-1.24,5.63-4.48,1.92-9.42,1.5-14.72,1.83-3.85.17-7.68.64-10.82,2.06-10.35,4.66-8.14,15.78,1.74,19.19,6.71,2.61,14.96,1.39,21.7,2.74,2.61.5,8.02,2.07,5.92,5.41-2.48,2.6-6.61,2.52-10.71,3.07-3.5.32-7.39.57-11.04,1.11-4.35.65-8.36,1.73-10.94,3.88-4.33,3.43-4.5,9.81-1.02,13.8l.11.13Z"/><path class="cls-1" d="M526.06,833.95c-10.05,11.71-33.25,11.61-43.26,3.56-3.05-2.15-5.84-8.06-.91-9.61,1.94-.61,4.86-.1,8.02.99,5.82,2.14,13.14,4.75,19.07,2.64,4.35-1.44,7.28-4.85,7.39-8.66-1.06-13.39-20.76-14.9-30.05-21.04-8.66-4.71-11.49-14.47-7.13-23.1,6.69-13.65,25.53-17.48,39.21-11.94,3.31,1.4,6.42,4.41,7.04,7.76.66,3.11-.95,5.62-3.76,5.81-4.43.27-9.17-3.02-14.7-4.28-5.04-1.24-10.13-.16-13.11,3.88-2.35,3.13-2.76,7.5-.9,10.93,6.63,12.96,36.86,12.59,37.96,29,.37,4.97-1.55,10.08-4.76,13.91l-.13.15Z"/><path class="cls-1" d="M589,834.57c5.39,1.65,5.23,6.69-.41,8.63-4.64,1.67-12.29.92-18.49.34-5.39-.65-11.85-1.01-16.45-2.29-5.06-1.54-7.83-4.46-8.36-9.15-.58-11.82.28-24.89.32-36.73.08-3.3.18-6.56.23-9.88.21-5.09-.43-10.39,1.32-15.1,1.31-3.83,5.23-5.24,7.93-1.78,3.38,4.07,4,13.29,3.94,21.41.2,10.76-2.57,22.86,1.1,32.64,2.83,6.81,8.66,9.86,17.3,10.51,3.73.32,7.85.21,11.39,1.35l.17.06Z"/><path class="cls-1" d="M318.97,840.98c-3.5,3.34-10.07,3.57-14.94,3-4.9-.47-10.5-.99-15.58-1.38-13.85-.6-15.53-6.26-15.1-19.5,0-10.28.18-19.25.29-29.64.24-7.18-.33-15.26.59-22.26.9-6.02,5.81-5.94,8.91-1.99,8,11.39.38,35.07,3.18,48.81,2.6,13.03,13.03,15.7,24.63,15.54,3.8.17,6.53.02,8.82,1.44,1.87,1.31,1.52,3.77-.69,5.88l-.11.1Z"/><path class="cls-1" d="M459.44,840.36c-1.87,1.62-4.66,1.41-6.73-.54-3.49-3.27-3.99-9.11-4-13.8.08-14.81,1.65-29.11,1.99-43.86.12-3.76.14-8.05,1.51-11.47,1.79-4.86,6.79-5.41,9.22-.69,2.99,6.35,1.71,14.54,1.66,21.5-.49,10.69-.66,19.06-.69,29.08-.35,6.25,1.69,14.77-2.84,19.69l-.11.09Z"/><path class="cls-1" d="M358.35,326.86c-37.06-.37-75.43,1.13-112.69,4.46-36.14,2.43-80.86,8.32-73.71-34.36,36.09-165.23,292.77-200.41,386.37-67.38,13.9,20.36,28.29,45.82,31.49,70.58,3.39,34.03-25.2,33.51-50.42,32.23-59.79-3.25-121.06-7.03-180.85-5.52h-.19ZM372.95,314.9c49.52-.39,104.93,2.41,154.96,5.92,9.56.7,20.82,1.82,30.47-.21,16.76-3.26,17.93-17.1,14.16-31.56-13.09-52.13-52.38-97.05-102.34-116.55-104.9-37.15-263.22,5.39-280.46,128.07-.47,6.7,2.26,13.64,8.35,16.76,15.87,7.91,37.83,2.95,54.85,1.9,39.51-1.76,80.49-5.12,119.83-4.33h.19Z"/><path class="cls-1" d="M418.52,533.83c-61.32,13.19-126.25-4.65-173.52-45.2-5.83-4.87-10.85-9.94-15.81-15.61-7.6-9.06-17.05-17.44-22.24-28.14-18.75-36.75-46.94-86.11,8.57-91.99,65.96-10.2,137.61-12.48,205.51-9.93,42.26,2.3,90.41.74,132.72,12.8,18.08,4.58,24.62,13.9,21.88,32.63-14.69,75.79-83.14,131.43-156.91,145.41l-.2.04ZM385.21,525.67c70.52-4.14,140.73-46.27,167.6-113.34,5.26-12.85,12.03-29.12,2.01-40.56-5.27-6.27-17.84-10.05-26.64-11.55-64.01-9.46-129.66-9.19-194.18-8.59-12.15-.05-23.41,1.77-35.88,2.44-26.9,2.38-68.2,1.1-90.96,14.38-3.19,2.25-4.75,5.33-5.29,9.83-1.82,86.01,102.46,151.51,183.16,147.42h.19Z"/><path class="cls-1" d="M238.89,174.56c-19.34,13.91-31.5,17.89-51.72,2.62-17.07-12.4-31.91-31.21-37.48-51.72-4.22-14.7-2.15-30.34,2.42-44.74,17.34-49.89,85.75-61.26,120.72-21.91,19.35,20.49,28.61,58.72,11.42,82.49-5.25,6.98-12.28,11.14-19.95,16.07-8.58,5.49-17.06,11.27-25.24,17.07l-.16.11ZM215.97,172.05c11.24-.22,20.31-7.76,29.86-14.06,13.61-9.46,27.12-17.77,31.87-34.51,13.08-43.81-29.28-88.96-73.31-75.95-14.1,2.99-27.14,11.61-34.13,23.63-22.23,36.44-.18,97.32,45.53,100.88h.19Z"/><path class="cls-1" d="M691.92,441.22c-24.2,16.33-60.12,18.38-82.83-1.62-21.55-18.57-13.37-47.97-7.37-73.14,5.04-24.84,13.22-52.87,37.91-64.79,39.55-21.45,74.5-.87,85.7,38.62,10.6,35.46-.63,79.46-33.23,100.82l-.17.12ZM696.6,423.21c13.91-15.81,24.42-40.76,23.84-59.31-.06-23.56-11.06-44.12-30.21-55.23-26.93-14.79-55.36-2.51-69.77,33.85-5.69,14.21-9.04,30.35-13.14,45.24-17.2,56.89,57.56,72.4,89.13,35.62l.15-.17Z"/><path class="cls-1" d="M586.85,168.42c-15.93,17.18-32.7,20.98-50.89,10.06-12.08-6.85-23.09-16.06-35.32-22.84-16.01-9.5-35.18-15.47-36.16-35.9-.11-153.51,228.64-68.05,122.56,48.49l-.19.19ZM532.16,165.07c44.17,24.63,78.8-36.95,68.02-75.54-5.81-25.93-31.32-42.9-57.36-44.7-56.55-3.71-91.38,70.74-45.47,99.24,11.17,7.53,22.84,14.3,34.64,20.91l.18.09Z"/><path class="cls-1" d="M105.04,409.87c-85.03,6.84-88.45-126.69-2.2-123.2,30.81,1.86,53.46,27.78,55.2,57.49,2.88,31.93-19.04,62.53-52.78,65.68l-.23.02ZM127.59,387.28c21.09-16.37,24.13-46.57,9.11-67.09-13.32-19.48-38.97-27.16-60.46-15.73-59.25,33.23-4.12,124.81,51.17,82.96l.18-.15Z"/><path class="cls-1" d="M248.57,605.01c-71.82,60.41-145.54-72.12-64.79-110.46,4.19-1.8,8.55-2.87,12.71-3.02,33.88,1.15,68.99,33.13,72.65,66.53,2.33,16.23-5.79,35.44-20.38,46.8l-.19.15ZM217.71,608c63-12.34,42.14-99.28-16.09-104.92-4.53-.19-9.11.55-13.26,2.07-24.35,8.79-32,37.31-26.19,60.69,5.42,25.33,27.84,47.66,55.32,42.2l.23-.04Z"/><path class="cls-1" d="M463.19,649.83c-49.45,9.3-98-65.25-46.41-94.41,14.41-7.19,30.02-9.79,44.68-16.44,48.62-21.06,72.02,12.02,61.06,54.94-6.87,27.69-29.35,52.7-59.12,55.9l-.21.03ZM457.87,639.48c14.17-.47,28.18-6.57,37.3-16.65,10.55-11.42,17.75-28.07,18.13-44.08.57-18.99-7.46-36.99-26.42-35.46-5.83.45-11.71,2.42-17.19,4.24-23.15,8.21-57.69,11.24-61.82,39.62-3.76,27.78,22.09,53.95,49.79,52.35h.21Z"/><path class="cls-1" d="M296.56,296.36c-93.99.55-71.75-92.19,10.25-86.27,25.42,2.69,53.92,19.96,49.56,47.68-4.41,26.48-33.37,39.45-59.6,38.58h-.21ZM327.07,276.89c51.35-41.43-42.39-79.58-72.68-35.7-5.14,8.08-5.18,18.28-.56,26.54,6.34,12.43,21.49,17.15,34.58,18.2,13.16,1.15,27.39-.83,38.48-8.9l.18-.14Z"/><path class="cls-1" d="M468.35,296.02c-16.07-.11-37.69-4.58-51.21-14.98-21.5-17.97-12.62-48.05,9.56-61.3,82.95-43.39,153.79,69.91,41.81,76.28h-.17ZM506.74,268.26c26.03-45.41-69.06-67.04-84.36-23.35-11.38,32.47,32.81,45.45,57.67,39.87,10.8-2.23,20.77-6.71,26.58-16.34l.1-.18Z"/><path class="cls-1" d="M393.46,487.29c-29.76,5.02-69.06-5.15-95.18-22.28-12.1-8.05-21.02-17.74-23.72-28.4-3.52-11.08,3.02-25.86,16.22-36.67,43.61-45.25,208.55-37.91,192.69,35.97-1.76,7.48-5.73,14.46-11.2,19.84-20.68,20.6-50.52,28.06-78.64,31.5l-.18.02ZM380.77,475.25c26.96-1.61,65.31-8.03,82.55-30.82,7.52-10.17,7.61-25.45-1.33-34.94-29.67-31.51-97.4-30.14-136.13-15.83-74.11,29.32-14.1,80.62,40.97,81.73,4.54.18,9.29.09,13.74-.13h.2Z"/><path class="cls-1" d="M228.5,131.38c-3.68.99-7.73,1.1-11.52.5-33.14-5.98-32.76-45.34-2.71-55.31,15.25-4.82,31.3,6.35,34.88,21.31,2.16,8,0,17.02-5.55,23.24-3.98,4.56-8.76,8.52-14.89,10.21l-.2.06ZM236.53,108.33c5.26-16.11-16.2-26.69-27.16-14.38-7.63,9.16-3.1,22.09,8.42,24.82,7.99,2.25,16.36-1.93,18.68-10.24l.06-.21Z"/><path class="cls-1" d="M669.55,404.41c-6.91.12-13.55-3.19-17.36-7.98-10.98-13.51-3.82-32.01,12.37-37.12,30.45-7.43,40.33,44.97,5.22,45.1h-.23ZM668.52,395.38c14.56,1.93,20.32-17.62,7.65-24.48-8.07-4.03-18.92.93-19.15,10.44-.51,6.79,4.22,13.24,11.29,14.01l.21.03Z"/><path class="cls-1" d="M547.56,129.22c-7.78,2.82-16.22,1.39-22.49-2.28-17.62-10.15-20.12-33.49-2.44-45.11,35.82-22.28,66.85,32.04,25.15,47.31l-.22.08ZM541.37,119.78c8.77-.83,14.55-8.21,13.42-16.69-1.01-11.39-12.92-19.2-23.26-12.98-14.2,9.25-7.71,32.07,9.62,29.7l.22-.02Z"/><path class="cls-1" d="M115.26,352.86c-.95,6.93-5.39,13.06-10.71,16.11-15.51,9.13-34.96-.77-35.16-19.28.02-34.54,50.81-31.82,45.91,2.94l-.04.23ZM101.3,339.77c-13.18-11.47-28.91,7.11-17.48,19.31,5.13,5.09,14.52,4.95,18.81-1.09,4.19-5.32,4.2-13.4-1.18-18.08l-.16-.14Z"/><path class="cls-1" d="M223.84,577.09c-9.49,8.2-23.2,7.07-31.37-1.94-9.46-9.77-7.82-25.43,3.11-33.53,23.12-16.32,51.8,17.05,28.43,35.33l-.17.14ZM206.03,572.18c3.36.97,7.08.89,10.2-.66,8.54-4.21,8.75-18.74.53-23.36-7.17-4.06-17.82,0-20,8.01-2.14,6.88,1.9,13.92,9.06,15.95l.21.06Z"/><path class="cls-1" d="M446.95,608.46c-17.62-17.59,6.13-43.83,26.96-33.07,12.52,6.89,13.9,25.73,2.76,34.55-8.5,7.38-21.71,7.27-29.57-1.32l-.15-.15ZM473.98,593.45c-.19-14.1-18.37-14.71-23.01-2.35-2.7,7.6,4.02,15.7,11.92,14.89,6.36-.31,11.27-5.78,11.1-12.32v-.22Z"/><path class="cls-1" d="M399.37,451.92c-19.64,2.28-41.64,2.81-60.06-5.43-21.84-9.64-25.31-28.15.79-36.5,6.4-2.09,12.79-2.7,19.47-3.48,7.68-.84,16.01-1.94,23.62-2.16,6.76-.32,11.15.81,16.47,1.8,5.29.73,10.8.96,16.38,2.04,28.23,4.23,32.6,29.29,2.14,39.62-6.02,2.06-12.46,3.32-18.61,4.09l-.2.03ZM418.75,437.33c6.56-5.26,8.82-12.89,1.96-18.63-4.37-3.86-10.28-6.88-16.2-8.14-7.17-1.52-14.45-.39-21.72-.49-12.5.12-25.4-.14-36.23,5.42-6.43,2.97-12.69,11.28-8.29,17.95,5.96,8.51,19.73,10.23,30.79,11.34,13.44.88,39.14.7,49.55-7.35l.14-.11Z"/></g></g></svg>